# xmcd
#
# Track frame offsets: 
#        180
#        16591
#        40462
#
# Disc length: 759 seconds
#
# Revision: 0
# Processed by: cddbd v1.5.2PL0 Copyright (c) Steve Scherf et al.
# Submitted via: ExactAudioCopy v1.0b1
#
DISCID=1802f503
DTITLE=Nana' - Spirit Of The Night-CDM-1995
DYEAR=1995
DGENRE=Eurodance
TTITLE0=Spirit Of The Night (Radio Edit)
TTITLE1=Spirit Of The Night (Extended)
TTITLE2=Spirit Of The Night (Club)
EXTD=
EXTT0=
EXTT1=
EXTT2=
PLAYORDER=
